<svg viewBox="0 0 64 64" xmlns="http://www.w3.org/2000/svg" fill="none" role="img" aria-label="OctoMeta">
  <g stroke="#0B0B0C" stroke-width="2.4" stroke-linecap="round">
    <path d="M32 23 C30 17 36 11 37 9"/>
    <path d="M38.4 25.6 C41.2 20 49.7 20 51.8 19.3"/>
    <path d="M41 32 C47 30 53 36 55 37"/>
    <path d="M38.4 38.4 C44 41.2 44 49.7 44.7 51.8"/>
    <path d="M32 41 C34 47 28 53 27 55"/>
    <path d="M25.6 38.4 C22.8 44 14.3 44 12.2 44.7"/>
    <path d="M23 32 C17 34 11 28 9 27"/>
    <path d="M25.6 25.6 C20 22.8 20 14.3 19.3 12.2"/>
  </g>
  <circle cx="32" cy="32" r="6.5" fill="#0B0B0C"/>
  <circle cx="37" cy="9" r="2.4" fill="#0B0B0C"/>
  <circle cx="51.8" cy="19.3" r="2.4" fill="#0B5FFF"/>
  <circle cx="55" cy="37" r="2.4" fill="#0B0B0C"/>
  <circle cx="44.7" cy="51.8" r="2.4" fill="#0B0B0C"/>
  <circle cx="27" cy="55" r="2.4" fill="#0B0B0C"/>
  <circle cx="12.2" cy="44.7" r="2.4" fill="#0B0B0C"/>
  <circle cx="9" cy="27" r="2.4" fill="#0B0B0C"/>
  <circle cx="19.3" cy="12.2" r="2.4" fill="#0B0B0C"/>
</svg>
