<svg xmlns="http://www.w3.org/2000/svg" viewBox="0 0 1000 1000">

<defs>
  <linearGradient id="brandGradient" x1="0%" y1="0%" x2="100%" y2="100%">
    <stop offset="0%" stop-color="#0B1020"/>
    <stop offset="55%" stop-color="#2B2E83"/>
    <stop offset="100%" stop-color="#6C5CE7"/>
  </linearGradient>
</defs>

<path d="
M 500 115
C 365 115 285 215 285 335
C 285 420 325 475 355 515
C 315 560 270 600 200 610
C 125 620 90 680 105 745
C 120 815 190 850 250 820
C 300 795 325 745 315 695
C 350 670 390 645 425 620
C 450 650 470 685 470 730
L 470 785
C 420 800 390 845 400 900
C 410 960 470 995 525 975
C 575 955 600 900 580 850
C 565 815 535 795 510 785
L 510 730
C 510 685 530 650 555 620
C 590 645 630 670 665 695
C 655 745 680 795 730 820
C 790 850 860 815 875 745
C 890 680 855 620 780 610
C 710 600 665 560 625 515
C 655 475 695 420 695 335
C 695 215 615 115 500 115
Z
" fill="url(#brandGradient)"/>
<circle cx="210" cy="715" r="58" fill="white"/>
<circle cx="490" cy="885" r="58" fill="white"/>
<circle cx="770" cy="715" r="58" fill="white"/>
<path d="M 390 650 C 430 705 460 735 500 760 C 540 735 570 705 610 650" fill="none" stroke="white" stroke-width="15" stroke-linecap="round" opacity="0.92"/>
<circle cx="390" cy="650" r="18" fill="#6C5CE7" stroke="white" stroke-width="9"/>
<circle cx="500" cy="760" r="20" fill="#6C5CE7" stroke="white" stroke-width="9"/>
<circle cx="610" cy="650" r="18" fill="#6C5CE7" stroke="white" stroke-width="9"/>

</svg>