<svg xmlns="http://www.w3.org/2000/svg" viewBox="0 0 1000 1000">

<rect x="0" y="0" width="1000" height="1000" rx="220" fill="#0B1020"/>
<g transform="translate(140.0,140.0) scale(0.72)">

<path d="
M 500 115
C 365 115 285 215 285 335
C 285 420 325 475 355 515
C 315 560 270 600 200 610
C 125 620 90 680 105 745
C 120 815 190 850 250 820
C 300 795 325 745 315 695
C 350 670 390 645 425 620
C 450 650 470 685 470 730
L 470 785
C 420 800 390 845 400 900
C 410 960 470 995 525 975
C 575 955 600 900 580 850
C 565 815 535 795 510 785
L 510 730
C 510 685 530 650 555 620
C 590 645 630 670 665 695
C 655 745 680 795 730 820
C 790 850 860 815 875 745
C 890 680 855 620 780 610
C 710 600 665 560 625 515
C 655 475 695 420 695 335
C 695 215 615 115 500 115
Z
" fill="#FFFFFF"/>
<path d="M 500 185 C 405 185 350 255 350 345 C 350 430 400 500 500 530 C 600 500 650 430 650 345 C 650 255 595 185 500 185 Z" fill="#0B1020"/>
<circle cx="210" cy="715" r="58" fill="#0B1020"/>
<circle cx="490" cy="885" r="58" fill="#0B1020"/>
<circle cx="770" cy="715" r="58" fill="#0B1020"/>
<path d="M 390 650 C 430 705 460 735 500 760 C 540 735 570 705 610 650" fill="none" stroke="#FFFFFF" stroke-width="18" stroke-linecap="round"/>
<circle cx="390" cy="650" r="20" fill="#0B1020" stroke="#FFFFFF" stroke-width="12"/>
<circle cx="500" cy="760" r="22" fill="#0B1020" stroke="#FFFFFF" stroke-width="12"/>
<circle cx="610" cy="650" r="20" fill="#0B1020" stroke="#FFFFFF" stroke-width="12"/>

</g>

</svg>